<!DOCTYPE svg PUBLIC "-//W3C//DTD SVG 1.1//EN" "http://www.w3.org/Graphics/SVG/1.1/DTD/svg11.dtd">
<!-- Uploaded to: SVG Repo, www.svgrepo.com, Transformed by: SVG Repo Mixer Tools -->
<svg height="800px" width="800px" version="1.1" id="Layer_1" xmlns="http://www.w3.org/2000/svg" xmlns:xlink="http://www.w3.org/1999/xlink" viewBox="0 0 506.4 506.4" xml:space="preserve" fill="#000000">
<g id="SVGRepo_bgCarrier" stroke-width="0"/>
<g id="SVGRepo_tracerCarrier" stroke-linecap="round" stroke-linejoin="round"/>
<g id="SVGRepo_iconCarrier"> <circle style="fill:#48a34e;" cx="253.2" cy="253.2" r="249.2"/> <g> <path style="fill:#F4EFEF;" d="M187.2,340c-12.8,8.8-22,3.2-22-12.4V179.2c0-15.6,9.2-21.2,22-12.4l101.2,70.8 c12.8,8.8,12.8,23.2,0.4,32L187.2,340z"/> <path style="fill:#F4EFEF;" d="M321.2,177.2v155.2c0,6.4,8.8,12.8,15.2,12.8h8.4c6.4,0,8.8-6.4,8.8-12.8V174 c0-6.4-2.4-12.8-8.8-12.8h-8.4c-6.4,0-14.4,9.6-14.4,16"/> </g> <path d="M253.2,506.4C113.6,506.4,0,392.8,0,253.2S113.6,0,253.2,0s253.2,113.6,253.2,253.2S392.8,506.4,253.2,506.4z M253.2,8 C118,8,8,118,8,253.2s110,245.2,245.2,245.2s245.2-110,245.2-245.2S388.4,8,253.2,8z"/> <path d="M173.6,348c-2.4,0-5.2-0.4-7.2-1.6c-6-3.2-9.2-10-9.2-18.8V179.2c0-8.8,3.2-15.6,9.2-18.8c6-3.2,13.6-2,21.2,3.2L290,234.4 c7.2,4.8,11.2,12,11.2,19.2s-4,14.4-11.2,19.6L188,344C182.8,346.4,178,348,173.6,348z M173.6,166.4c-1.2,0-2.4,0.4-3.6,0.8 c-3.2,1.6-5.2,6-5.2,11.6v148.4c0,6,2,10,5.2,11.6s8,0.8,12.8-2.8l0,0l102-70.8c5.2-3.6,8-8,8-12.8s-2.8-9.2-7.6-12.4l-102.4-70.8 C179.6,167.6,176.4,166.4,173.6,166.4z"/> <path d="M341.2,350.4h-6.8c-7.2,0-13.2-5.6-13.2-12.8V169.2c0-6.8,6.4-12.8,13.6-12.8h5.6c6.8,0,12.8,6,12.8,13.2V338 C353.2,344.8,348,350.4,341.2,350.4z M334.8,164c-2.8,0-5.6,2.4-5.6,4.8v168.4c0,2.4,2.4,4.8,5.2,4.8h6.8c2.8,0,4-2.4,4-4.8v-168 c0-2.8-2-5.2-4.8-5.2H334.8z"/> </g>
</svg>